<?xml version="1.0" standalone="no"?>
<!DOCTYPE svg PUBLIC "-//W3C//DTD SVG 20010904//EN"
 "http://www.w3.org/TR/2001/REC-SVG-20010904/DTD/svg10.dtd">
<svg version="1.0" xmlns="http://www.w3.org/2000/svg"
 width="400.000000pt" height="400.000000pt" viewBox="0 0 400.000000 400.000000"
 preserveAspectRatio="xMidYMid meet">
<metadata>
Created by potrace 1.11, written by Peter Selinger 2001-2013
</metadata>
<g transform="translate(0.000000,400.000000) scale(0.100000,-0.100000)"
fill="#000000" stroke="none">
<path d="M1360 3625 c-24 -25 -29 -82 -32 -373 l-3 -224 28 -24 c15 -13 40
-24 54 -24 22 0 203 64 501 177 51 20 100 42 108 50 20 21 18 79 -5 102 -10
10 -60 41 -112 70 -52 29 -130 74 -174 101 -204 124 -293 170 -324 167 -12 -1
-30 -10 -41 -22z m118 -61 c37 -20 86 -50 109 -65 23 -16 52 -33 65 -39 47
-21 310 -180 320 -194 7 -11 -9 -36 -23 -36 -5 0 -89 -31 -187 -69 -286 -113
-349 -134 -369 -122 -15 8 -17 24 -15 128 2 65 5 177 6 248 4 182 5 185 17
185 6 0 41 -16 77 -36z"/>
<path d="M2734 3632 c-17 -11 -37 -53 -123 -258 -47 -111 -79 -199 -75 -208
16 -41 57 4 87 94 9 25 26 68 38 95 13 28 24 52 24 55 3 9 17 44 30 75 40 90
51 122 47 138 -4 18 -11 21 -28 9z"/>
<path d="M3056 3346 c-114 -117 -235 -249 -252 -274 -9 -13 -13 -30 -10 -38 5
-13 9 -13 33 0 16 8 43 31 61 53 50 56 151 168 198 218 51 53 74 85 74 102 0
30 -38 8 -104 -61z"/>
<path d="M2201 3023 c-105 -17 -243 -63 -341 -115 -77 -41 -217 -135 -258
-174 -22 -20 -32 -21 -163 -19 -115 3 -142 1 -155 -12 -27 -28 1 -38 112 -39
57 -1 107 -3 109 -6 3 -2 -19 -27 -48 -56 l-52 -51 -242 -3 c-248 -3 -286 -9
-254 -40 9 -10 68 -13 231 -12 l219 0 -35 -45 c-166 -218 -320 -525 -364 -723
l-13 -58 -116 0 c-479 -2 -529 -6 -492 -42 9 -10 81 -13 302 -11 l290 2 -7
-57 c-3 -31 -8 -60 -10 -63 -1 -3 -111 -4 -244 -2 -231 3 -280 -2 -280 -27 0
-19 52 -24 275 -26 127 -1 233 -2 237 -3 5 0 7 -25 7 -55 -2 -51 -3 -54 -28
-53 -261 1 -620 -7 -641 -15 -35 -12 -30 -32 8 -37 27 -4 428 -4 575 0 43 1
79 0 81 -2 2 -2 7 -29 10 -59 4 -30 9 -70 13 -89 5 -31 2 -38 -34 -70 -132
-118 -165 -309 -79 -456 47 -79 147 -135 245 -137 90 -2 156 25 217 90 l41 43
46 -13 c51 -13 55 -21 30 -58 -29 -44 -76 -82 -137 -111 -51 -24 -87 -33 -191
-44 -33 -4 -35 -5 -35 -15 0 -13 66 -25 129 -22 100 4 242 95 296 189 18 31
19 32 94 31 151 -2 270 26 431 104 407 196 793 668 957 1168 57 175 68 251 67
460 -1 149 -3 174 -28 255 -41 135 -89 218 -176 306 -151 152 -358 211 -599
172z m-1211 -2093 c0 -4 -13 -25 -28 -46 -16 -21 -33 -58 -39 -81 -33 -131
150 -251 249 -164 l33 29 32 -22 32 -23 -32 -30 c-52 -50 -95 -67 -167 -66
-95 0 -170 42 -218 123 -24 40 -27 55 -27 130 1 99 21 153 81 220 l38 42 23
-52 c13 -29 23 -56 23 -60z m123 -181 c41 -41 46 -64 20 -77 -44 -22 -108 -1
-142 47 -28 40 -27 81 5 119 l27 32 27 -43 c14 -23 43 -58 63 -78z"/>
<path d="M3229 2980 c-8 -4 -66 -17 -129 -30 -63 -12 -119 -23 -125 -24 -37
-7 -55 -20 -55 -37 0 -16 7 -19 39 -19 22 0 51 4 64 9 14 6 44 13 67 16 23 3
52 10 64 15 13 4 38 11 57 14 90 15 102 20 97 44 -3 18 -54 25 -79 12z"/>
<path d="M3482 2668 c-5 -18 -8 -68 -7 -110 1 -43 1 -78 0 -78 -1 0 -15 19
-31 43 -38 58 -75 97 -91 97 -23 0 -14 -37 22 -86 19 -27 38 -56 42 -64 3 -8
13 -23 21 -33 15 -16 11 -17 -79 -16 -100 1 -129 -5 -129 -26 0 -19 30 -26
100 -24 33 1 62 0 65 -3 3 -2 -19 -21 -49 -42 -59 -41 -75 -63 -50 -73 20 -7
66 14 126 60 25 19 48 34 50 32 1 -2 2 -45 1 -97 -1 -94 7 -128 31 -128 15 0
17 12 19 113 1 42 3 77 4 77 2 0 20 -26 40 -57 42 -65 69 -93 90 -93 22 0 15
33 -18 86 -17 27 -35 51 -38 54 -15 11 -52 70 -44 70 198 4 214 6 223 20 16
26 -8 35 -100 35 -48 0 -86 3 -83 8 2 4 40 30 83 57 75 49 96 72 84 91 -8 14
-63 -13 -152 -74 -48 -33 -82 -51 -85 -44 -2 7 -2 51 -1 99 4 87 -6 138 -25
138 -6 0 -14 -15 -19 -32z"/>
<path d="M522 2554 c-5 -10 -9 -47 -8 -80 1 -38 -3 -60 -9 -57 -5 2 -27 26
-48 54 -21 27 -45 49 -53 49 -26 0 -14 -37 26 -83 22 -25 37 -48 32 -51 -4 -2
-27 -5 -51 -4 -48 0 -75 -17 -51 -33 8 -5 32 -8 53 -7 20 2 37 1 37 -3 0 -3
-18 -18 -40 -33 -22 -14 -40 -33 -40 -41 0 -26 40 -17 91 21 l49 36 0 -64 c0
-34 4 -68 8 -75 13 -21 36 4 37 41 2 49 8 52 38 16 14 -16 35 -30 47 -30 20 0
20 1 5 31 -9 17 -30 45 -46 62 -34 35 -25 48 27 40 46 -8 104 5 104 22 0 17
-54 29 -101 22 l-34 -5 25 16 c45 31 85 70 78 77 -10 11 -50 -2 -74 -22 -20
-18 -60 -43 -68 -43 -2 0 -3 29 -1 64 2 41 -1 70 -9 82 -13 17 -14 17 -24 -2z"/>
<path d="M3171 1936 c-5 -6 -12 -26 -16 -43 -3 -18 -9 -42 -14 -55 -5 -13 -9
-25 -9 -28 -1 -44 -114 -296 -143 -320 -3 -3 -13 -19 -22 -36 -14 -27 -14 -34
-3 -43 10 -8 20 -6 40 10 14 11 26 27 26 35 0 8 4 14 9 14 11 0 128 236 135
270 2 14 7 32 10 40 6 17 13 54 22 116 5 32 3 42 -9 47 -9 3 -20 0 -26 -7z"/>
<path d="M3265 1743 c-5 -16 -9 -35 -11 -43 -4 -18 -11 -33 -68 -146 -37 -75
-43 -94 -32 -103 25 -21 46 1 96 103 48 99 76 188 65 207 -13 20 -43 9 -50
-18z"/>
<path d="M2720 1072 c-37 -13 -48 -45 -55 -158 -2 -38 -7 -98 -10 -134 -13
-125 -12 -149 2 -170 21 -29 57 -25 185 21 62 22 157 57 211 76 103 37 127 57
119 98 -5 27 -27 45 -112 92 -30 17 -100 58 -155 91 -113 69 -163 92 -185 84z
m218 -163 c51 -28 98 -57 105 -64 7 -7 28 -20 45 -29 31 -16 35 -36 8 -36 -7
0 -52 -16 -102 -36 -104 -42 -125 -51 -139 -54 -5 -2 -41 -14 -78 -27 -62 -21
-94 -23 -83 -5 4 7 14 117 21 237 1 22 6 61 10 86 l7 47 56 -34 c32 -18 99
-56 150 -85z"/>
</g>
</svg>
